<?xml version="1.0" standalone="no"?>
<!DOCTYPE svg PUBLIC "-//W3C//DTD SVG 20010904//EN"
 "http://www.w3.org/TR/2001/REC-SVG-20010904/DTD/svg10.dtd">
<svg version="1.0" xmlns="http://www.w3.org/2000/svg"
 width="348.000000pt" height="312.000000pt" viewBox="0 0 348.000000 312.000000"
 preserveAspectRatio="xMidYMid meet">

<g transform="translate(0.000000,312.000000) scale(0.100000,-0.100000)"
fill="#fff" stroke="none">
<path d="M1670 3056 c-72 -16 -127 -45 -176 -94 -23 -23 -108 -159 -209 -333
-93 -162 -199 -346 -236 -409 -89 -155 -379 -657 -700 -1210 -145 -250 -271
-477 -281 -505 -67 -190 65 -406 272 -445 73 -14 2728 -14 2801 0 185 35 317
225 280 402 -16 75 -20 82 -331 618 -267 461 -595 1028 -898 1554 -92 159
-184 306 -204 327 -47 48 -117 84 -193 98 -32 6 -61 11 -64 10 -3 0 -31 -6
-61 -13z"/>
</g>
</svg>
