<?xml version="1.0" encoding="UTF-8" standalone="no"?>
<svg
   height="760.94678"
   width="760.95642"
   viewBox="-330.1 -92.497 1052.0003 1051.987"
   version="1.1"
   id="svg12"
   sodipodi:docname="Facebook_Messenger-Black-Logo.wine.svg"
   inkscape:version="1.2.2 (732a01da63, 2022-12-09)"
   xmlns:inkscape="http://www.inkscape.org/namespaces/inkscape"
   xmlns:sodipodi="http://sodipodi.sourceforge.net/DTD/sodipodi-0.dtd"
   xmlns="http://www.w3.org/2000/svg"
   xmlns:svg="http://www.w3.org/2000/svg">
  <defs
     id="defs16" />
  <sodipodi:namedview
     id="namedview14"
     pagecolor="#505050"
     bordercolor="#eeeeee"
     borderopacity="1"
     inkscape:showpageshadow="0"
     inkscape:pageopacity="0"
     inkscape:pagecheckerboard="0"
     inkscape:deskcolor="#505050"
     showgrid="false"
     inkscape:zoom="1.28375"
     inkscape:cx="370.7887"
     inkscape:cy="372.34664"
     inkscape:window-width="2560"
     inkscape:window-height="1346"
     inkscape:window-x="-11"
     inkscape:window-y="-11"
     inkscape:window-maximized="1"
     inkscape:current-layer="svg12" />
  <path
     d="m 197.9,-35.497 c -280,0 -497,205.1 -497,482.1 0,144.9 59.4,270.1 156.1,356.6 8.1,7.3 13,17.4 13.4,28.3 l 2.7,88.4 c 0.9,28.2 30,46.5 55.8,35.2 l 98.6,-43.5 c 8.4,-3.7 17.7,-4.4 26.5,-2 45.3,12.5 93.6,19.1 143.9,19.1 280,0 497,-205.1 497,-482.1 0,-277 -217,-482.1 -497,-482.1 z m 298.4,370.9 -146,231.6 c -23.2,36.8 -73,46 -107.8,19.9 l -116.1,-87.1 c -10.7,-8 -25.3,-7.9 -35.9,0.1 l -156.8,119 c -20.9,15.9 -48.3,-9.2 -34.2,-31.4 l 146,-231.6 c 23.2,-36.8 73,-46 107.8,-19.9 l 116.1,87.1 c 10.7,8 25.3,7.9 35.9,-0.1 l 156.8,-119 c 20.9,-15.9 48.3,9.2 34.2,31.4 z"
     fill-rule="evenodd"
     clip-rule="evenodd"
     id="path10" />
</svg>
