<?xml version="1.0" standalone="no"?>
<!DOCTYPE svg PUBLIC "-//W3C//DTD SVG 20010904//EN"
 "http://www.w3.org/TR/2001/REC-SVG-20010904/DTD/svg10.dtd">
<svg version="1.0" xmlns="http://www.w3.org/2000/svg"
 width="1059.000000pt" height="1059.000000pt" viewBox="0 0 1059.000000 1059.000000"
 preserveAspectRatio="xMidYMid meet">

<g transform="translate(0.000000,1059.000000) scale(0.100000,-0.100000)"
fill="#f00" stroke="none">
<path d="M1337 9435 c-42 -14 -55 -24 -110 -74 -50 -46 -77 -101 -84 -166 -7
-65 3 -84 73 -135 56 -42 101 -94 573 -670 281 -342 462 -563 632 -769 52 -64
169 -206 259 -316 90 -110 198 -241 239 -291 42 -50 112 -135 156 -190 44 -54
113 -137 152 -185 40 -48 77 -98 83 -113 20 -54 -32 -114 -88 -101 -21 4 -53
34 -114 108 -131 159 -396 481 -473 577 -38 48 -107 131 -152 186 -45 54 -213
259 -374 454 -160 195 -339 414 -398 485 -59 72 -209 254 -334 406 -125 152
-238 281 -252 287 -49 23 -98 15 -161 -26 -127 -82 -174 -225 -123 -375 31
-94 118 -229 171 -266 12 -8 46 -18 76 -22 108 -15 104 -10 497 -499 73 -91
181 -226 241 -300 180 -223 435 -538 674 -835 124 -154 294 -365 378 -468 84
-104 155 -199 158 -212 9 -35 -20 -82 -56 -90 -48 -11 -65 1 -142 98 -41 51
-130 162 -199 247 -69 85 -192 238 -274 340 -82 102 -224 277 -315 390 -238
295 -513 636 -689 855 -84 105 -177 218 -207 253 -52 58 -58 62 -98 62 -104 0
-217 -126 -233 -259 -7 -60 12 -113 81 -231 88 -151 113 -183 541 -690 95
-113 178 -222 212 -280 31 -52 86 -147 123 -210 307 -522 820 -1401 832 -1425
9 -18 18 -74 22 -138 12 -197 58 -399 132 -589 178 -455 493 -834 825 -995 83
-41 234 -93 267 -93 63 0 228 -64 299 -116 38 -27 242 -226 870 -848 182 -181
337 -332 343 -336 6 -4 143 -138 303 -297 161 -160 311 -302 334 -316 144 -90
346 -89 477 3 23 15 179 167 347 337 276 279 308 314 334 373 23 52 30 84 33
155 5 101 -10 167 -54 244 -17 29 -441 462 -1148 1171 -1267 1270 -1106 1091
-1393 1560 -68 113 -162 266 -207 340 -46 74 -163 266 -261 425 -98 160 -194
317 -215 350 -21 33 -99 161 -175 285 -373 610 -279 482 -984 1340 -392 477
-593 721 -636 775 -27 34 -78 95 -112 136 -34 41 -119 144 -190 230 -389 474
-355 434 -381 448 -34 17 -68 19 -105 6z"/>
<path d="M9188 9443 c-30 -5 -83 -59 -203 -207 -95 -117 -480 -586 -604 -736
-48 -58 -211 -256 -362 -440 -150 -184 -301 -368 -334 -408 -89 -108 -163
-198 -331 -403 -83 -101 -180 -231 -216 -289 -36 -58 -170 -276 -298 -485
-128 -209 -257 -418 -286 -465 -29 -47 -138 -224 -242 -395 -516 -843 -526
-859 -589 -940 -29 -38 -101 -117 -158 -177 -94 -96 -105 -111 -105 -143 0
-20 6 -48 14 -63 8 -15 264 -276 568 -579 l554 -553 46 0 c97 0 240 41 368
105 287 144 560 440 739 802 130 262 201 518 217 783 8 126 -29 54 405 795
696 1186 607 1045 805 1280 97 116 202 239 233 275 194 222 357 476 368 574
16 134 -115 306 -232 306 -53 0 -55 -2 -262 -260 -82 -102 -223 -277 -314
-390 -317 -393 -513 -636 -625 -775 -62 -77 -212 -264 -335 -415 -122 -151
-244 -303 -271 -338 -28 -34 -61 -65 -74 -68 -61 -15 -120 49 -95 102 6 15 46
69 89 121 133 165 553 685 821 1018 141 176 364 453 496 615 131 162 272 337
314 389 80 100 141 147 200 156 106 17 134 40 219 180 100 165 93 334 -19 444
-58 57 -107 81 -165 81 -40 0 -51 -5 -83 -37 -31 -33 -351 -419 -556 -673 -38
-48 -205 -250 -370 -450 -165 -200 -311 -378 -325 -396 -14 -17 -74 -92 -135
-165 -60 -73 -164 -199 -230 -280 -66 -80 -187 -227 -268 -327 -116 -141 -155
-182 -178 -187 -36 -8 -76 15 -90 51 -13 37 6 70 117 204 53 63 129 156 169
205 40 50 129 158 197 240 68 83 207 251 308 375 101 124 279 340 394 480 545
662 667 811 746 909 47 58 110 132 141 166 31 33 64 74 73 92 39 77 6 172 -83
237 -47 35 -112 68 -128 65 -4 -1 -20 -4 -35 -6z"/>
<path d="M8695 5654 c-71 -19 -139 -41 -150 -48 -11 -8 -108 -165 -216 -349
l-197 -336 -7 -99 c-6 -86 -5 -103 10 -126 19 -29 63 -56 91 -56 18 0 132 56
284 140 47 25 186 100 310 166 189 100 235 129 287 180 54 53 64 70 83 133 29
95 24 169 -19 256 -52 105 -146 164 -274 171 -59 3 -95 -3 -202 -32z"/>
<path d="M1600 5665 c-77 -26 -134 -76 -171 -151 -44 -89 -49 -164 -19 -254
36 -107 81 -156 205 -224 270 -148 699 -376 728 -387 29 -10 39 -9 73 7 58 28
66 52 58 168 l-6 99 -72 121 c-40 67 -118 200 -174 297 -56 97 -112 185 -125
196 -12 11 -87 46 -167 79 -162 66 -243 78 -330 49z"/>
<path d="M3975 2902 c-16 -11 -155 -145 -307 -299 -317 -320 -323 -328 -323
-458 0 -67 5 -88 27 -130 37 -71 783 -817 853 -853 41 -22 64 -26 130 -26 125
-1 142 11 488 354 271 269 297 298 297 328 0 52 -20 79 -162 216 -73 71 -273
267 -444 435 -480 473 -446 442 -490 447 -28 4 -48 -1 -69 -14z"/>
</g>
</svg>
