<?xml version="1.0" standalone="no"?>
<!DOCTYPE svg PUBLIC "-//W3C//DTD SVG 20010904//EN"
 "http://www.w3.org/TR/2001/REC-SVG-20010904/DTD/svg10.dtd">
<svg version="1.0" xmlns="http://www.w3.org/2000/svg"
 width="447.000000pt" height="447.000000pt" viewBox="0 0 447.000000 447.000000"
 preserveAspectRatio="xMidYMid meet">

<g transform="translate(0.000000,447.000000) scale(0.100000,-0.100000)"
fill="#fff" stroke="none">
<path d="M212 3874 l-22 -15 0 -1149 0 -1150 25 -16 c28 -19 59 -12 71 17 5
11 77 88 159 170 l150 149 231 0 232 0 4 25 5 25 -186 2 -186 3 92 51 92 51
92 -49 c72 -40 93 -47 100 -37 17 27 8 38 -61 75 -38 21 -70 41 -70 44 0 3 48
32 107 65 92 51 111 67 132 104 13 24 20 42 15 39 -5 -3 -78 -45 -162 -93
l-152 -87 -138 77 c-75 43 -138 78 -139 79 -1 1 -5 34 -9 73 l-7 70 143 81
c78 45 146 82 150 82 4 0 88 -46 186 -101 175 -100 199 -108 211 -72 2 6 -71
53 -162 103 -91 51 -168 96 -170 100 -3 5 77 54 178 111 100 56 191 108 202
115 17 11 35 3 140 -57 66 -38 125 -69 130 -69 6 1 18 7 28 14 16 13 7 20
-100 81 -65 37 -119 69 -121 70 -1 1 90 55 203 119 l206 116 187 -106 187
-106 88 0 88 1 189 105 190 106 197 -111 c109 -61 202 -114 206 -119 5 -4 -51
-40 -123 -80 -127 -70 -131 -73 -114 -91 19 -21 23 -19 229 99 60 35 73 39 90
28 11 -7 102 -59 202 -115 101 -57 181 -106 178 -111 -2 -4 -88 -54 -190 -110
-184 -103 -186 -104 -166 -123 19 -19 21 -18 217 92 108 61 202 111 208 110 6
0 72 -35 146 -78 l135 -77 0 -73 0 -73 -142 -80 -142 -80 -193 110 c-106 60
-194 108 -196 106 -2 -1 8 -20 22 -42 21 -33 51 -55 165 -119 78 -43 141 -80
141 -83 0 -3 -41 -28 -91 -55 -86 -48 -90 -51 -85 -79 3 -16 6 -35 6 -42 0
-12 45 -14 256 -14 l256 0 154 -147 c85 -81 154 -153 154 -160 0 -7 11 -20 25
-29 23 -15 27 -15 50 0 l25 16 0 1149 c0 1099 -1 1149 -18 1164 -17 16 -175
17 -2063 17 -1834 0 -2047 -2 -2067 -16z m490 -155 c59 -33 110 -64 112 -68 5
-8 -372 -227 -378 -220 -2 2 -16 42 -31 89 -15 47 -45 124 -65 173 l-38 87
146 0 145 0 109 -61z m333 48 c-11 -8 -50 -31 -87 -51 l-68 -38 -67 38 c-123
68 -127 64 67 64 149 0 172 -2 155 -13z m601 -49 c63 -35 114 -66 114 -69 0
-6 -361 -212 -392 -225 -23 -8 -423 215 -409 229 5 5 56 36 113 68 l103 59
179 0 179 0 113 -62z m329 49 c-11 -8 -50 -31 -88 -51 l-67 -38 -83 47 c-45
26 -84 49 -86 51 -2 2 74 4 170 4 148 0 171 -2 154 -13z m597 -48 c59 -33 110
-64 112 -68 5 -7 -363 -222 -391 -229 -21 -5 -414 221 -403 232 5 5 55 35 112
67 l103 58 179 1 179 0 109 -61z m348 57 c0 -2 -37 -25 -82 -51 l-83 -47 -70
38 c-126 67 -130 64 63 64 94 0 172 -2 172 -4z m587 -58 c62 -35 113 -66 113
-69 0 -8 -388 -229 -402 -229 -21 0 -407 225 -399 233 4 4 55 35 112 67 l104
59 179 1 180 0 113 -62z m328 49 c-11 -8 -50 -31 -88 -51 l-67 -38 -83 47
c-45 26 -84 49 -86 51 -2 2 74 4 170 4 148 0 171 -2 154 -13z m425 9 c0 -2
-15 -36 -34 -77 -19 -41 -48 -117 -66 -169 -17 -52 -33 -96 -35 -98 -2 -2 -89
45 -194 104 -117 67 -187 112 -181 118 5 5 55 35 112 67 l103 58 148 1 c81 0
147 -2 147 -4z m8 -1621 l-3 -493 -130 126 -130 127 7 180 c25 665 112 1232
231 1510 l22 50 3 -503 c1 -277 1 -726 0 -997z m-3913 1375 c84 -241 148 -590
180 -990 18 -224 34 -609 26 -627 -3 -6 -61 -64 -128 -128 l-123 -117 0 988
c0 543 2 985 4 983 2 -2 21 -51 41 -109z m746 -32 c109 -61 198 -113 196 -114
-2 -2 -94 -55 -205 -118 l-202 -116 -163 91 c-89 51 -182 103 -206 117 -32 18
-40 27 -30 32 8 5 97 56 199 114 102 58 191 105 198 106 7 0 103 -50 213 -112z
m931 0 c109 -61 195 -114 191 -118 -4 -4 -97 -57 -205 -118 l-197 -111 -206
116 c-171 98 -202 119 -188 127 140 83 381 215 392 215 8 1 103 -49 213 -111z
m929 0 c109 -61 198 -113 196 -114 -2 -2 -94 -55 -205 -118 l-201 -115 -206
117 c-126 71 -200 119 -193 123 292 167 385 219 396 219 7 0 103 -50 213 -112z
m930 0 c155 -87 197 -114 187 -123 -19 -17 -381 -218 -393 -218 -23 0 -413
228 -402 235 254 145 385 217 396 217 7 1 103 -49 212 -111z m-2330 -260 c109
-61 199 -114 199 -117 -1 -5 -377 -220 -400 -229 -9 -3 -410 220 -410 228 0 3
30 22 68 43 37 20 126 70 197 111 72 41 134 75 139 76 4 0 98 -50 207 -112z
m930 0 c155 -87 197 -114 187 -123 -22 -20 -389 -226 -397 -223 -24 10 -392
222 -395 227 -4 7 380 229 398 230 4 1 98 -49 207 -111z m931 0 c109 -62 198
-115 198 -119 0 -7 -375 -221 -397 -227 -12 -3 -413 218 -413 228 1 6 391 228
404 229 5 1 99 -49 208 -111z m-2766 -15 c95 -53 171 -100 169 -104 -6 -9
-276 -161 -280 -157 -2 2 -13 57 -25 123 -12 66 -28 146 -35 178 -7 31 -11 57
-7 57 3 0 83 -44 178 -97z m3440 75 c-3 -13 -20 -93 -37 -178 -17 -85 -32
-156 -34 -158 -2 -3 -266 146 -277 156 -7 7 327 201 346 202 4 0 6 -10 2 -22z
m-3001 -324 c113 -64 204 -118 203 -119 -12 -11 -401 -225 -409 -225 -5 0 -81
40 -168 90 l-158 90 -7 41 c-4 23 -3 46 1 50 7 6 324 187 330 189 2 0 95 -52
208 -116z m2755 22 c159 -90 165 -94 168 -127 2 -19 -3 -42 -10 -51 -14 -18
-310 -188 -328 -188 -5 0 -99 51 -209 113 l-200 113 202 116 c111 64 204 116
207 117 3 0 79 -41 170 -93z m-3144 -328 c114 -65 124 -73 108 -85 -22 -16
-210 -123 -217 -123 -2 0 -7 48 -11 108 -4 59 -9 122 -13 140 -3 17 -2 32 1
32 3 0 63 -32 132 -72z m3284 -70 c-6 -73 -13 -134 -15 -136 -3 -4 -215 115
-228 127 -5 5 49 40 120 79 70 39 129 69 131 67 3 -2 -1 -64 -8 -137z m-3264
-465 c57 -32 104 -60 104 -63 0 -3 -46 -31 -102 -63 l-103 -57 -6 58 c-9 75
-11 182 -3 182 3 0 52 -26 110 -57z m3234 -57 c0 -63 -4 -117 -9 -120 -10 -7
-202 98 -203 110 0 8 188 121 205 123 4 1 7 -50 7 -113z m-181 -144 c-48 -1
-132 -1 -186 0 l-98 3 93 51 94 51 93 -51 93 -51 -89 -3z"/>
<path d="M2070 2795 c-248 -39 -460 -152 -643 -344 -185 -194 -283 -411 -309
-689 -37 -393 131 -768 455 -1014 99 -74 275 -160 389 -189 103 -26 356 -37
468 -20 465 71 853 447 934 905 43 241 21 464 -68 674 -100 238 -333 478 -571
588 -197 91 -436 123 -655 89z m410 -111 c97 -20 185 -63 233 -112 l38 -39
-67 -110 -67 -110 -136 -12 c-75 -7 -152 -15 -171 -18 -35 -5 -39 -2 -152 119
l-117 125 23 49 c30 64 96 122 145 126 68 6 196 -3 271 -18z m-464 -291 c31
-37 77 -98 102 -135 l45 -68 -54 -166 -54 -166 -168 -85 c-93 -46 -172 -83
-176 -81 -3 2 -46 45 -95 97 -102 108 -100 97 -51 266 42 144 95 248 146 285
47 35 214 120 235 120 7 0 38 -30 70 -67z m940 11 c129 -86 230 -246 281 -445
l27 -106 -36 -75 c-62 -125 -51 -123 -230 -29 l-153 80 -67 201 -67 201 55 92
c90 148 81 138 110 127 14 -6 50 -26 80 -46z m-1416 -24 c27 -27 26 -36 -19
-126 -45 -93 -83 -196 -111 -300 -17 -66 -30 -88 -97 -174 -64 -82 -83 -99
-105 -100 -27 0 -28 2 -28 54 0 196 103 458 245 624 42 48 81 56 115 22z m641
-677 c63 -33 161 -114 178 -145 11 -22 9 -53 -15 -229 l-29 -204 -55 -33 c-71
-42 -156 -74 -201 -75 -46 -2 -181 75 -284 162 -74 62 -75 64 -75 109 1 50 20
169 39 239 l12 42 171 86 c185 91 180 90 259 48z m658 7 c62 -29 159 -87 209
-127 l42 -34 -1 -77 c0 -42 -8 -113 -17 -157 l-17 -80 -168 -118 -169 -119
-69 22 c-73 24 -186 87 -203 112 -14 23 49 395 71 421 47 52 233 177 263 177
8 0 35 -9 59 -20z m-1624 -177 c16 -127 72 -277 143 -382 26 -38 28 -48 19
-69 l-11 -24 -20 23 c-10 13 -40 69 -67 124 -69 145 -123 385 -87 385 12 0 18
-16 23 -57z m1962 -391 c18 -11 -70 -135 -162 -227 -87 -88 -172 -152 -278
-210 -65 -36 -71 -37 -108 -26 -22 7 -39 16 -37 21 2 5 37 48 78 96 66 76 98
102 275 220 110 74 204 134 210 134 5 0 15 -4 22 -8z m-1475 -68 c69 -56 149
-112 236 -165 17 -10 32 -40 53 -104 16 -50 29 -91 29 -92 0 -1 -37 -14 -83
-29 l-82 -27 -75 38 c-114 57 -186 110 -282 206 l-87 86 17 46 c10 25 21 50
26 54 10 11 126 51 149 52 10 1 54 -29 99 -65z m752 -445 l28 -13 -28 -8 c-48
-14 -234 -21 -319 -13 -80 8 -80 8 -47 22 18 7 56 17 85 23 68 12 245 5 281
-11z"/>
</g>
</svg>
