<?xml version="1.0" standalone="no"?>
<!DOCTYPE svg PUBLIC "-//W3C//DTD SVG 20010904//EN"
 "http://www.w3.org/TR/2001/REC-SVG-20010904/DTD/svg10.dtd">
<svg version="1.0" xmlns="http://www.w3.org/2000/svg"
 width="459.000000pt" height="512.000000pt" viewBox="0 0 459.000000 512.000000"
 preserveAspectRatio="xMidYMid meet">

<g transform="translate(0.000000,512.000000) scale(0.100000,-0.100000)"
fill="#fff" stroke="none">
<path d="M1775 5113 c-57 -15 -95 -67 -95 -130 0 -21 34 -222 74 -447 70 -383
76 -410 102 -437 15 -16 43 -34 61 -40 73 -24 163 42 163 120 0 56 -142 825
-158 860 -27 56 -92 88 -147 74z"/>
<path d="M863 5010 c-44 -26 -66 -73 -60 -124 3 -30 76 -165 279 -516 269
-467 275 -475 320 -498 40 -20 51 -22 86 -12 71 19 117 99 93 163 -10 26 -399
705 -514 896 -37 63 -58 87 -83 97 -46 19 -83 17 -121 -6z"/>
<path d="M349 4295 c-61 -33 -83 -127 -43 -182 24 -33 626 -547 666 -568 57
-31 138 -12 173 42 21 31 24 97 6 131 -10 19 -607 531 -671 575 -30 20 -95 22
-131 2z"/>
<path d="M2345 3648 c-314 -181 -824 -476 -1135 -655 -311 -179 -602 -349
-646 -378 -538 -348 -719 -1066 -413 -1633 150 -280 378 -471 694 -582 50 -17
383 -110 740 -205 695 -186 779 -203 940 -190 569 47 1005 414 1142 962 24 96
27 127 27 278 1 231 -30 371 -126 563 -35 71 -39 85 -27 96 8 8 241 217 519
466 278 249 511 458 518 464 10 10 -36 96 -221 417 l-234 404 -584 157 c-321
86 -593 159 -604 161 -14 4 -204 -101 -590 -325z m1053 -25 c240 -64 440 -119
443 -122 4 -3 -446 -267 -1000 -586 -553 -319 -1045 -606 -1093 -638 -267
-177 -466 -486 -523 -811 -19 -114 -19 -318 0 -432 34 -194 142 -434 248 -551
11 -13 18 -25 15 -29 -7 -6 -335 80 -503 131 -121 38 -247 95 -333 152 -217
144 -383 416 -423 692 -25 175 8 406 80 565 72 160 210 326 351 422 83 56
2271 1322 2288 1323 7 1 209 -51 450 -116z"/>
<path d="M1907 2967 c-161 -94 -204 -123 -190 -129 10 -4 118 -35 240 -68
l222 -60 211 121 c116 67 209 123 208 124 -3 2 -430 120 -468 129 -8 2 -109
-51 -223 -117z"/>
</g>
</svg>
