<?xml version="1.0" standalone="no"?>
<!DOCTYPE svg PUBLIC "-//W3C//DTD SVG 20010904//EN"
 "http://www.w3.org/TR/2001/REC-SVG-20010904/DTD/svg10.dtd">
<svg version="1.0" xmlns="http://www.w3.org/2000/svg"
 width="1024.000000pt" height="1024.000000pt" viewBox="0 0 1024.000000 1024.000000"
 preserveAspectRatio="xMidYMid meet">

<g transform="translate(0.000000,1024.000000) scale(0.100000,-0.100000)"
fill="#fff" stroke="none">
<path d="M2290 9715 c-276 -44 -527 -171 -720 -365 -156 -155 -255 -327 -345
-595 -220 -657 -188 -1420 101 -2455 72 -255 131 -442 364 -1145 239 -722 324
-991 399 -1270 121 -449 194 -861 208 -1182 l6 -143 -577 0 c-632 0 -638 0
-755 -60 -237 -119 -406 -382 -468 -724 -22 -122 -22 -360 0 -482 46 -254 149
-458 305 -606 87 -82 176 -132 279 -158 78 -20 108 -20 3158 -17 l3080 2 107
27 c317 79 578 244 763 483 113 147 177 269 243 471 183 552 186 1216 11 2059
-44 213 -62 250 -133 285 -114 54 -243 -5 -275 -126 -10 -36 -6 -65 24 -210
81 -383 115 -650 122 -970 8 -341 -17 -577 -88 -824 -67 -232 -139 -375 -253
-497 -117 -126 -239 -207 -387 -259 -163 -57 -12 -54 -2709 -54 l-2489 0 46
78 c62 104 163 316 207 433 122 330 178 662 178 1064 1 413 -55 819 -183 1330
-92 367 -157 578 -449 1460 -336 1014 -410 1267 -499 1695 -112 545 -124 1040
-35 1437 51 230 140 453 228 577 87 122 242 243 386 302 132 53 211 64 498 64
205 0 270 -3 297 -14 86 -36 181 -164 229 -308 44 -131 78 -118 -302 -118
-195 0 -352 -4 -388 -11 -129 -24 -237 -107 -297 -228 -30 -62 -32 -71 -32
-176 1 -97 5 -121 33 -202 90 -261 234 -447 422 -543 116 -59 -42 -54 2255
-60 l2120 -5 7 -95 c18 -231 93 -664 127 -730 38 -75 144 -117 225 -90 74 24
135 103 136 174 0 17 -15 109 -34 205 -30 155 -47 270 -71 484 l-6 57 283 0
c316 0 351 5 475 65 89 44 214 158 278 255 89 134 153 305 182 483 21 136 13
405 -15 528 -87 371 -309 639 -584 704 -55 13 -414 15 -2833 14 -2267 -1
-2785 -3 -2855 -14z m5646 -395 c100 -49 195 -194 241 -369 30 -115 37 -321
14 -436 -45 -228 -166 -408 -299 -445 -34 -9 -4442 -16 -4442 -6 0 2 15 36 34
77 152 331 155 774 7 1109 l-39 90 2221 0 c2213 0 2221 0 2263 -20z m-4757
-879 c-55 -201 -159 -339 -278 -371 -108 -29 -232 60 -310 222 -48 101 -74
191 -58 207 8 8 117 11 338 11 l328 0 -20 -69z m-1811 -6284 c32 -34 51 -88
58 -164 9 -95 -9 -170 -57 -243 -45 -66 -59 -106 -59 -164 0 -65 22 -118 70
-167 70 -73 102 -79 417 -79 l264 0 -48 -90 c-26 -50 -86 -148 -133 -218 l-85
-127 -308 -3 c-296 -2 -309 -1 -349 19 -102 52 -196 198 -240 374 -32 126 -31
371 1 490 54 202 163 349 282 384 19 5 64 10 100 10 56 1 69 -2 87 -22z m915
16 c7 -13 -31 -250 -56 -348 l-22 -90 -209 -3 -209 -2 7 32 c26 125 26 261 0
386 l-6 32 245 0 c135 0 248 -3 250 -7z"/>
<path d="M2067 7286 c-87 -24 -137 -92 -137 -186 0 -67 29 -123 82 -157 l42
-28 2220 -3 c2466 -3 2272 -8 2335 63 28 32 51 89 51 125 0 62 -53 144 -114
178 -29 16 -182 17 -2231 19 -1775 1 -2209 -1 -2248 -11z"/>
<path d="M9070 7049 c-322 -35 -664 -140 -981 -300 -167 -84 -241 -132 -263
-170 -10 -16 -31 -69 -47 -117 -37 -111 -102 -272 -110 -272 -3 0 -11 11 -17
25 -31 69 -152 103 -234 67 -112 -49 -489 -463 -647 -711 -43 -66 -49 -124
-27 -240 10 -54 16 -138 16 -243 l0 -160 -36 32 c-46 40 -73 50 -135 50 -52 0
-111 -24 -141 -57 -25 -28 -60 -111 -111 -268 -77 -237 -120 -429 -154 -690
-24 -193 -25 -653 0 -840 38 -282 102 -542 190 -765 l41 -105 -4 -150 c-3 -82
-5 -223 -4 -312 l1 -163 -1659 0 c-1370 0 -1664 -2 -1691 -14 -59 -24 -117
-111 -117 -176 0 -65 48 -138 111 -170 38 -20 73 -20 2080 -20 l2043 0 44 21
c66 32 97 86 97 169 0 56 -4 73 -28 108 -48 74 -78 82 -296 82 l-191 0 -6 27
c-4 15 -4 146 -1 291 l6 264 78 172 c105 232 282 587 392 782 49 88 92 177 96
196 9 46 -9 110 -42 148 -14 17 -23 33 -21 35 3 3 36 9 75 14 119 15 142 34
256 217 41 66 134 212 207 325 161 248 174 275 166 342 -8 71 -43 119 -112
153 l-58 28 35 15 c20 8 86 17 159 20 122 7 153 14 194 50 19 16 374 549 403
605 25 49 21 126 -11 180 -15 25 -32 46 -38 46 -8 0 -8 3 -2 9 5 6 41 13 79
16 152 13 163 20 266 163 168 232 454 586 680 840 65 72 126 147 136 165 25
48 22 123 -7 176 -29 52 -69 75 -166 97 -84 18 -375 26 -494 13z m15 -456
c-106 -127 -330 -409 -405 -510 l-75 -101 -63 -12 c-220 -39 -455 -158 -501
-253 -43 -90 -19 -168 86 -273 l64 -64 -98 -150 c-91 -139 -100 -150 -133
-155 -239 -34 -438 -121 -582 -254 -74 -68 -87 -87 -99 -141 -20 -86 34 -169
171 -262 l80 -55 -127 -197 c-69 -109 -131 -199 -137 -201 -173 -43 -339 -115
-415 -181 -52 -45 -71 -86 -71 -154 0 -62 20 -103 92 -190 l54 -65 -47 -85
c-26 -47 -89 -169 -140 -272 -52 -104 -96 -188 -100 -188 -9 0 -58 265 -74
405 -17 151 -20 494 -5 646 16 156 48 338 86 488 19 74 36 136 37 138 2 1 37
-11 78 -29 102 -43 191 -49 247 -18 75 42 93 83 117 265 24 176 30 411 16 558
l-13 126 42 58 c54 76 189 239 233 281 l34 33 28 -40 c61 -89 149 -151 215
-151 36 0 93 23 125 51 60 53 207 339 300 585 25 65 50 121 57 126 80 51 299
149 448 200 161 55 392 105 488 107 l44 1 -57 -67z"/>
<path d="M2308 6344 c-150 -46 -174 -253 -40 -345 l36 -24 2019 -3 2020 -2 45
21 c110 54 139 213 54 302 -15 16 -40 36 -57 45 -28 16 -187 17 -2030 19
-1720 1 -2007 0 -2047 -13z"/>
<path d="M2600 5398 c-24 -13 -57 -40 -74 -61 -79 -99 -22 -263 103 -297 27
-7 573 -9 1693 -8 1598 3 1654 4 1691 22 79 39 121 135 97 221 -17 60 -73 119
-127 134 -26 8 -557 11 -1688 11 l-1651 0 -44 -22z"/>
<path d="M2911 4469 c-93 -37 -145 -138 -121 -230 16 -57 81 -123 137 -138 30
-8 426 -11 1405 -9 l1363 3 43 25 c123 70 130 242 13 325 l-43 30 -1386 2
c-856 1 -1396 -2 -1411 -8z"/>
<path d="M3110 3518 c-65 -34 -102 -86 -108 -151 -8 -101 50 -182 148 -207 32
-8 396 -10 1270 -8 l1225 3 40 23 c70 40 113 126 100 203 -9 54 -58 117 -108
140 -41 18 -85 19 -1282 19 l-1241 0 -44 -22z"/>
<path d="M3185 2583 c-75 -39 -108 -93 -108 -173 0 -81 34 -136 110 -174 29
-14 154 -16 1322 -16 887 0 1298 3 1318 11 64 24 123 109 123 179 0 70 -59
155 -123 179 -20 8 -431 11 -1320 11 -1158 -1 -1295 -2 -1322 -17z"/>
</g>
</svg>
