<?xml version="1.0" standalone="no"?>
<!DOCTYPE svg PUBLIC "-//W3C//DTD SVG 20010904//EN"
 "http://www.w3.org/TR/2001/REC-SVG-20010904/DTD/svg10.dtd">
<svg version="1.0" xmlns="http://www.w3.org/2000/svg"
 width="920.000000pt" height="864.000000pt" viewBox="0 0 920.000000 864.000000"
 preserveAspectRatio="xMidYMid meet">

<g transform="translate(0.000000,864.000000) scale(0.100000,-0.100000)"
fill="#fff" stroke="none">
<path d="M4354 8222 c-10 -2 -38 -10 -62 -18 -27 -9 -85 -14 -157 -14 -76 0
-115 -4 -117 -11 -2 -7 -36 -14 -81 -17 -47 -3 -81 -10 -88 -18 -7 -9 -33 -14
-68 -14 -33 -1 -64 -7 -75 -15 -11 -8 -36 -15 -55 -15 -20 0 -45 -7 -55 -15
-11 -8 -34 -15 -52 -15 -18 0 -35 -4 -38 -9 -4 -5 -25 -12 -49 -16 -23 -4 -51
-14 -62 -21 -11 -8 -32 -14 -47 -14 -15 0 -30 -4 -33 -10 -3 -5 -17 -10 -30
-10 -14 0 -50 -13 -80 -30 -30 -16 -66 -30 -80 -30 -13 0 -26 -4 -29 -9 -7
-11 -88 -51 -104 -51 -11 0 -114 -48 -152 -71 -8 -5 -25 -13 -38 -19 -12 -5
-50 -28 -83 -50 -33 -22 -69 -40 -80 -40 -10 0 -19 -4 -19 -9 0 -9 -112 -81
-127 -81 -5 0 -20 -11 -33 -25 -13 -14 -28 -25 -33 -25 -5 0 -27 -15 -50 -32
-23 -18 -49 -37 -58 -43 -57 -34 -149 -100 -149 -106 0 -4 -42 -41 -92 -82
-102 -81 -375 -354 -459 -457 -29 -36 -65 -76 -79 -90 -14 -14 -32 -36 -40
-49 -8 -13 -34 -48 -57 -80 -23 -31 -43 -61 -43 -67 0 -6 -7 -17 -15 -24 -16
-14 -95 -126 -95 -136 0 -3 -20 -37 -45 -74 -25 -37 -45 -72 -45 -78 0 -5 -7
-15 -15 -22 -8 -7 -15 -20 -15 -30 0 -10 -7 -23 -15 -30 -13 -11 -26 -34 -49
-90 -3 -8 -17 -35 -31 -59 -14 -24 -25 -52 -25 -61 0 -10 -7 -23 -15 -30 -8
-7 -15 -18 -15 -24 0 -6 -14 -38 -30 -71 -16 -33 -30 -70 -30 -81 0 -12 -7
-27 -15 -34 -8 -7 -15 -22 -15 -34 0 -11 -7 -30 -15 -40 -8 -11 -15 -32 -15
-47 0 -15 -5 -31 -10 -34 -6 -3 -10 -15 -10 -27 0 -11 -6 -32 -14 -46 -15 -30
-33 -93 -45 -160 -4 -24 -13 -48 -19 -54 -7 -7 -12 -30 -12 -52 -1 -23 -7 -52
-15 -66 -8 -14 -15 -47 -15 -75 0 -27 -7 -59 -15 -69 -10 -13 -15 -44 -15 -89
0 -37 -6 -78 -12 -90 -25 -43 -48 -729 -27 -769 8 -14 13 -72 15 -143 1 -66 7
-133 13 -148 6 -16 14 -61 17 -100 3 -40 12 -84 20 -99 8 -15 13 -45 12 -68
-1 -22 4 -46 10 -52 7 -7 12 -29 12 -50 0 -20 9 -56 21 -78 12 -22 18 -47 15
-56 -3 -9 1 -25 9 -37 8 -12 15 -33 15 -47 0 -24 40 -133 54 -147 3 -3 6 -18
6 -33 0 -14 7 -35 15 -46 8 -10 15 -29 15 -40 0 -12 7 -27 15 -34 8 -7 15 -21
15 -30 0 -10 6 -31 14 -47 8 -15 28 -57 44 -93 66 -145 137 -281 195 -376 20
-34 37 -67 37 -73 0 -6 4 -11 10 -11 5 0 18 -19 28 -42 10 -24 26 -49 35 -57
10 -7 17 -19 17 -26 0 -6 10 -20 21 -31 12 -10 37 -41 55 -69 63 -93 112 -157
141 -185 15 -15 51 -55 78 -90 62 -78 327 -344 375 -375 19 -13 70 -55 114
-94 43 -39 83 -71 88 -71 5 0 23 -13 41 -30 18 -16 46 -37 63 -45 16 -8 42
-26 58 -40 15 -14 30 -25 35 -25 4 0 25 -13 47 -30 21 -16 43 -30 48 -30 4 0
25 -13 45 -28 20 -16 56 -39 81 -51 25 -12 72 -38 105 -57 33 -19 76 -42 95
-51 19 -8 42 -19 50 -24 8 -5 26 -14 40 -19 14 -6 33 -15 42 -20 10 -6 26 -10
37 -10 10 0 24 -7 31 -15 7 -8 20 -15 30 -15 10 0 23 -7 30 -15 7 -8 25 -15
41 -15 15 0 31 -4 34 -10 3 -5 15 -10 26 -10 10 0 28 -9 39 -20 12 -12 33 -20
54 -20 19 0 38 -4 41 -10 3 -5 18 -10 32 -10 15 0 35 -8 45 -17 11 -9 32 -16
47 -15 16 1 34 -5 41 -13 7 -9 29 -15 55 -15 26 0 48 -6 55 -15 8 -9 30 -15
59 -15 26 0 56 -7 67 -15 10 -8 40 -15 65 -15 26 0 60 -7 75 -15 17 -9 52 -14
85 -14 30 1 65 -4 77 -10 12 -6 77 -12 151 -14 88 -1 134 -6 143 -14 19 -20
534 -18 574 1 18 9 76 16 157 18 78 3 132 9 139 16 7 7 41 12 79 12 47 0 70 4
79 15 8 10 30 15 64 15 30 0 60 6 72 15 10 8 36 15 57 15 20 0 53 9 73 19 20
11 42 17 50 14 8 -3 25 2 39 11 13 9 38 16 54 16 16 0 36 7 45 15 8 8 25 15
38 15 13 0 33 7 44 15 10 8 33 15 50 15 17 0 37 7 44 15 7 8 20 15 30 15 10 0
23 7 30 15 7 8 22 15 34 15 11 0 48 13 81 29 33 16 87 41 120 56 115 52 226
111 309 166 32 22 62 39 66 39 4 0 26 13 48 30 23 16 44 30 46 30 7 0 107 69
138 95 16 14 34 25 40 25 5 0 38 25 73 55 34 30 65 55 69 55 4 0 60 50 125
110 65 61 131 121 148 133 17 12 54 49 81 82 27 33 95 109 151 168 55 60 101
112 101 118 0 5 21 33 47 62 27 30 56 67 66 83 20 35 58 89 87 127 12 15 33
48 47 74 14 26 35 61 46 77 12 17 31 48 42 71 11 22 32 58 46 80 24 38 109
210 131 265 5 14 16 38 24 53 8 16 14 34 14 42 0 7 7 18 15 25 8 7 15 22 15
34 0 12 7 31 15 42 8 10 15 28 15 40 0 11 7 29 15 40 8 10 15 33 15 49 0 17 7
39 15 49 8 11 15 29 15 40 0 12 7 30 15 40 8 11 15 34 15 51 0 17 7 40 15 51
8 10 15 35 15 55 0 19 5 40 11 46 5 5 13 37 16 69 3 32 11 70 18 84 7 14 10
31 8 38 -3 7 2 34 10 60 9 26 18 84 22 129 3 45 10 95 17 110 16 41 22 762 7
845 -7 35 -15 104 -18 153 -3 50 -12 100 -19 112 -6 12 -12 39 -12 60 0 22 -7
48 -15 59 -8 11 -14 42 -15 75 0 38 -5 61 -15 69 -8 7 -15 29 -15 49 -1 20 -7
47 -15 61 -8 14 -14 39 -15 57 0 29 -15 73 -41 125 -5 10 -9 28 -9 40 0 13 -9
38 -20 56 -11 18 -18 37 -16 41 3 4 -1 17 -9 27 -8 10 -15 31 -15 45 0 15 -7
32 -15 39 -8 7 -15 20 -15 30 0 10 -6 23 -14 29 -8 6 -16 22 -19 34 -10 40
-33 97 -45 109 -7 7 -12 20 -12 29 0 9 -7 22 -15 29 -8 7 -15 18 -15 24 0 12
-43 93 -80 151 -11 17 -24 40 -30 53 -5 12 -28 50 -50 83 -22 33 -40 67 -40
75 0 7 -13 26 -30 41 -16 14 -30 34 -30 43 0 9 -13 29 -30 45 -16 16 -30 34
-30 40 0 6 -25 40 -55 75 -30 35 -55 68 -55 75 0 6 -28 37 -61 70 -34 33 -74
78 -90 100 -38 51 -233 250 -279 283 -19 14 -64 53 -100 87 -36 34 -87 77
-114 96 -27 19 -61 44 -74 57 -14 12 -30 22 -37 22 -6 0 -24 14 -40 30 -16 17
-32 30 -37 30 -10 0 -155 98 -163 110 -3 6 -13 10 -22 10 -9 0 -26 8 -37 19
-37 33 -380 211 -407 211 -9 0 -22 7 -29 15 -7 8 -20 15 -29 15 -9 0 -25 7
-35 15 -11 8 -32 15 -47 15 -14 0 -32 7 -39 15 -7 8 -21 15 -31 15 -10 0 -21
5 -24 10 -3 6 -19 10 -34 10 -15 0 -36 7 -47 15 -10 8 -31 15 -45 15 -14 0
-34 7 -45 15 -10 8 -32 15 -49 15 -16 0 -39 7 -49 15 -11 8 -34 15 -51 15 -17
0 -40 7 -51 15 -10 8 -38 15 -60 15 -24 0 -47 6 -54 15 -8 10 -31 15 -72 15
-43 0 -60 4 -64 15 -5 11 -23 15 -74 15 -37 0 -83 6 -101 14 -22 9 -72 14
-139 14 -64 0 -117 6 -135 13 -22 10 -101 13 -291 14 -143 0 -269 -2 -280 -3z
m524 -337 c26 -9 60 -14 77 -11 19 4 38 1 50 -8 17 -12 18 -17 7 -40 -7 -15
-12 -44 -12 -65 0 -22 -6 -44 -15 -51 -8 -7 -15 -23 -15 -35 0 -12 -7 -28 -15
-35 -8 -7 -15 -27 -15 -44 0 -18 -7 -41 -15 -52 -8 -10 -15 -30 -15 -44 0 -14
-7 -34 -15 -44 -8 -11 -15 -36 -15 -56 0 -19 -7 -45 -15 -57 -9 -12 -15 -26
-14 -30 7 -41 -58 -113 -102 -113 -15 0 -32 -7 -39 -15 -8 -9 -30 -15 -59 -15
-25 0 -55 -7 -65 -15 -11 -8 -34 -15 -52 -15 -19 0 -34 -6 -38 -15 -3 -10 -19
-15 -43 -15 -21 0 -47 -7 -57 -15 -11 -8 -31 -15 -44 -15 -13 0 -30 -7 -38
-15 -9 -8 -26 -15 -38 -15 -13 0 -37 -7 -55 -16 -17 -9 -38 -13 -45 -11 -8 3
-22 -3 -32 -14 -9 -10 -30 -19 -45 -19 -15 0 -31 -4 -34 -10 -3 -5 -19 -10
-34 -10 -16 0 -34 -7 -41 -15 -7 -8 -20 -15 -29 -15 -9 0 -33 -9 -52 -19 -20
-11 -46 -17 -56 -15 -12 4 -22 0 -26 -9 -3 -8 -19 -18 -36 -22 -17 -4 -33 -11
-36 -16 -4 -5 -14 -9 -23 -9 -9 0 -44 -14 -77 -30 -33 -16 -65 -30 -72 -30 -6
0 -24 -6 -40 -14 -29 -14 -87 -40 -113 -50 -8 -3 -22 -10 -30 -15 -8 -5 -33
-17 -55 -26 -22 -10 -52 -24 -67 -32 -35 -17 -73 -17 -88 2 -7 8 -27 15 -45
15 -18 0 -38 7 -45 15 -7 8 -27 15 -44 15 -18 0 -41 7 -52 15 -10 8 -32 15
-49 15 -16 0 -39 7 -49 15 -11 8 -32 15 -47 15 -14 0 -32 7 -40 16 -9 11 -24
14 -48 11 -20 -2 -49 1 -66 8 -16 8 -51 16 -77 20 -26 3 -50 10 -53 16 -4 5
-32 9 -63 9 -31 0 -70 7 -86 15 -16 9 -55 15 -91 15 -43 0 -66 5 -75 15 -7 8
-20 15 -30 15 -24 0 -44 25 -33 43 14 23 160 157 171 157 5 0 32 19 58 43 27
24 65 53 84 64 20 12 46 33 59 47 14 14 29 26 34 26 6 0 25 11 43 25 18 14 43
29 56 35 24 10 41 21 93 55 45 30 97 58 175 94 14 6 39 20 55 30 17 11 37 20
46 20 9 1 22 7 28 15 7 8 26 18 42 21 16 4 29 11 29 16 0 5 8 9 18 9 9 0 30 7
46 15 15 8 37 15 47 15 11 0 22 7 25 15 4 8 18 15 34 15 15 0 33 7 40 15 7 8
27 15 45 15 18 0 38 7 45 15 7 8 27 15 45 15 18 0 38 7 45 15 7 9 29 15 55 15
26 0 48 6 55 15 7 9 29 15 55 15 26 0 48 6 55 15 8 10 31 15 64 15 29 0 59 7
70 15 13 10 44 15 85 15 42 1 73 6 85 15 15 11 50 15 135 15 79 1 124 5 141
14 39 22 454 22 518 1z m74 -838 c7 -6 38 -24 68 -40 30 -15 72 -37 92 -50 21
-12 69 -41 107 -64 39 -24 75 -43 81 -43 6 0 13 -7 16 -15 4 -8 10 -15 16 -15
5 0 35 -17 66 -37 32 -21 65 -42 73 -48 9 -5 50 -34 92 -62 42 -29 79 -53 82
-53 4 0 18 -13 32 -30 13 -16 33 -30 42 -30 10 0 36 -17 57 -39 22 -21 48 -41
59 -45 11 -3 47 -31 80 -61 33 -30 65 -55 70 -55 6 0 30 -20 55 -43 25 -24 71
-60 103 -80 31 -20 57 -40 57 -45 0 -4 32 -33 70 -65 l70 -57 0 -331 c0 -232
-3 -337 -12 -352 -7 -13 -13 -92 -16 -197 -3 -116 -9 -186 -18 -209 -9 -20
-14 -72 -14 -135 -1 -69 -5 -109 -15 -126 -8 -14 -15 -50 -15 -80 0 -30 -7
-66 -15 -80 -8 -14 -14 -44 -15 -67 0 -50 -34 -121 -64 -134 -12 -5 -28 -13
-36 -17 -41 -23 -83 -42 -92 -42 -6 0 -40 -14 -77 -31 -36 -17 -82 -38 -101
-46 -19 -8 -47 -22 -62 -29 -14 -8 -33 -14 -41 -14 -8 0 -20 -7 -27 -15 -7 -8
-22 -15 -34 -15 -11 0 -30 -7 -40 -15 -11 -8 -30 -15 -42 -15 -12 0 -27 -7
-34 -15 -7 -8 -23 -15 -36 -15 -13 0 -24 -4 -24 -10 0 -5 -16 -12 -35 -16 -19
-3 -39 -12 -46 -20 -6 -8 -24 -14 -40 -14 -15 0 -30 -4 -34 -9 -3 -5 -18 -12
-34 -16 -16 -3 -35 -13 -42 -21 -6 -8 -21 -14 -32 -14 -23 0 -104 -37 -113
-51 -3 -5 -16 -9 -28 -9 -13 0 -37 -7 -52 -15 -16 -8 -36 -15 -45 -15 -9 0
-22 -7 -29 -15 -7 -8 -25 -15 -41 -15 -15 0 -31 -5 -34 -10 -3 -5 -13 -10 -22
-10 -9 0 -24 -7 -34 -16 -10 -9 -32 -17 -48 -18 -17 -1 -36 -7 -43 -14 -6 -6
-22 -12 -34 -12 -12 0 -27 -7 -34 -15 -7 -8 -25 -15 -41 -15 -15 0 -34 -7 -43
-15 -8 -8 -28 -15 -44 -15 -17 0 -32 -6 -36 -15 -4 -11 -21 -15 -66 -15 -57 0
-67 4 -146 56 -47 30 -96 59 -110 64 -13 5 -24 14 -24 19 0 5 -24 24 -52 42
-29 18 -55 36 -58 40 -3 3 -30 22 -60 42 -30 21 -81 56 -112 80 -31 23 -79 57
-105 76 -26 19 -66 50 -87 68 -22 18 -43 33 -48 33 -4 0 -31 22 -60 50 -29 27
-62 53 -73 56 -11 4 -41 27 -68 53 -26 25 -61 54 -78 63 -17 9 -68 52 -113 95
-45 43 -109 99 -142 125 -87 68 -121 142 -95 210 5 13 10 87 12 163 1 86 8
153 16 174 8 20 13 75 13 138 0 69 5 115 15 140 8 19 15 65 15 102 0 44 5 74
15 87 9 12 15 44 15 89 0 41 7 80 15 95 8 14 15 48 15 75 0 28 7 59 15 69 9
12 15 41 15 71 0 30 6 59 15 71 8 10 15 37 15 59 0 22 7 49 15 59 8 11 15 32
15 47 0 15 7 40 15 55 8 16 15 39 15 52 0 48 55 121 91 122 8 0 24 7 35 15 10
8 26 15 35 15 9 0 22 7 29 15 7 8 23 15 35 15 12 0 28 7 35 15 7 8 19 15 27
15 8 0 27 6 41 14 48 24 102 46 116 46 8 0 19 7 26 15 7 8 22 15 34 15 11 0
30 7 40 15 11 8 30 15 42 15 12 0 27 7 34 15 7 8 23 15 35 15 21 0 55 14 105
42 8 4 20 10 25 12 6 1 26 9 45 16 19 7 49 15 67 17 18 3 38 11 44 19 6 8 24
14 40 14 15 0 31 5 34 10 3 6 18 10 32 10 13 0 36 9 50 20 14 11 39 20 55 20
16 0 40 7 53 16 14 9 32 13 45 9 13 -4 28 -1 38 8 9 8 38 18 65 22 26 4 47 11
47 16 0 5 16 9 36 9 21 0 47 8 61 20 20 16 41 20 94 20 40 0 73 -5 81 -13z
m2696 -813 c23 -25 42 -49 42 -54 0 -5 16 -34 35 -65 19 -30 40 -65 45 -77 6
-13 15 -32 22 -43 13 -23 12 -22 63 -125 38 -76 59 -121 81 -175 6 -16 17 -43
24 -60 7 -16 19 -42 26 -57 8 -14 14 -37 14 -50 0 -13 7 -33 15 -44 8 -10 15
-31 15 -45 0 -15 7 -32 15 -39 8 -7 15 -29 15 -49 1 -20 7 -47 15 -61 8 -14
15 -38 15 -55 0 -16 7 -41 15 -55 8 -14 14 -41 15 -61 0 -20 7 -53 15 -72 8
-20 15 -58 15 -85 0 -26 5 -53 11 -59 6 -6 15 -66 20 -132 4 -67 12 -127 16
-134 14 -22 3 -616 -13 -682 -7 -33 -14 -92 -14 -130 0 -43 -5 -78 -14 -90 -7
-11 -14 -46 -15 -77 -1 -31 -8 -69 -16 -85 -8 -15 -15 -35 -15 -44 0 -26 -60
-83 -120 -113 -30 -16 -64 -37 -76 -47 -11 -10 -25 -19 -32 -19 -6 0 -34 -13
-62 -30 -28 -17 -53 -30 -57 -30 -13 0 -103 -46 -103 -52 0 -5 -15 -8 -32 -8
-18 0 -42 -7 -52 -15 -11 -8 -30 -15 -42 -15 -12 0 -27 -7 -34 -15 -8 -10 -31
-15 -71 -15 -32 0 -61 -4 -64 -10 -18 -29 -95 12 -95 50 0 9 -12 27 -26 41
-14 13 -35 39 -47 59 -11 19 -24 37 -28 40 -3 3 -13 19 -22 35 -8 17 -36 54
-61 83 -25 30 -46 57 -46 60 0 4 -18 27 -40 51 -22 24 -40 49 -40 55 0 7 -18
30 -41 51 -22 22 -50 56 -61 75 -12 19 -40 55 -63 80 -23 25 -58 68 -78 95
-19 28 -52 66 -72 85 -21 19 -55 58 -77 85 -22 28 -68 79 -102 115 -99 103
-104 113 -99 167 3 27 11 58 19 70 8 13 14 48 14 81 0 33 7 79 15 102 8 23 15
70 15 104 0 36 5 67 13 74 8 9 14 63 17 165 3 84 9 159 15 167 5 8 13 155 16
325 10 392 20 510 51 542 14 15 33 23 54 23 17 0 37 7 44 15 7 8 29 15 50 15
21 0 43 7 50 15 8 9 30 15 60 15 30 0 52 6 60 15 7 8 25 15 39 15 15 0 36 7
47 15 11 8 42 14 75 15 38 0 61 5 69 15 7 9 29 15 55 15 26 0 48 6 55 15 8 10
30 15 65 15 35 0 57 5 65 15 8 10 31 15 64 15 29 0 59 7 70 15 13 10 43 15 81
15 61 0 63 -1 103 -46z m-6546 -1481 c19 -49 40 -97 54 -126 8 -16 14 -40 14
-53 0 -14 14 -52 30 -86 17 -33 30 -65 30 -71 0 -15 40 -96 51 -103 5 -3 9
-14 9 -25 0 -17 52 -117 117 -227 64 -108 66 -112 61 -194 -3 -43 -10 -84 -16
-90 -9 -9 -12 -97 -12 -309 0 -244 3 -302 15 -325 11 -21 15 -63 15 -160 0
-91 5 -145 15 -174 22 -63 20 -162 -4 -184 -30 -28 -71 2 -71 51 0 9 -11 31
-25 49 -14 18 -25 39 -25 47 0 8 -9 26 -20 40 -11 14 -20 34 -20 45 0 11 -7
25 -15 32 -8 7 -15 23 -15 36 0 13 -4 24 -10 24 -5 0 -10 10 -10 23 0 13 -7
32 -15 43 -8 10 -15 28 -15 40 0 11 -7 29 -15 40 -8 10 -15 30 -15 44 0 14 -7
34 -15 44 -8 11 -15 32 -15 46 0 14 -7 35 -15 46 -8 10 -15 35 -15 55 0 19 -7
44 -15 55 -8 10 -15 35 -15 55 0 19 -7 44 -15 55 -9 12 -15 43 -15 84 0 41 -6
72 -15 84 -8 11 -15 41 -15 67 0 25 -7 64 -16 85 -14 34 -16 97 -16 480 0 242
3 451 6 462 11 33 53 29 68 -5z m1898 -219 c36 -36 88 -82 115 -102 28 -20 75
-60 105 -88 30 -29 82 -72 115 -97 33 -24 69 -54 79 -65 11 -12 24 -22 31 -22
6 0 37 -23 69 -52 32 -28 71 -59 86 -67 15 -9 62 -43 105 -76 79 -62 105 -81
188 -137 27 -18 65 -47 85 -64 31 -25 115 -81 207 -137 34 -21 69 -47 108 -83
35 -33 37 -38 37 -97 0 -34 -7 -93 -15 -132 -22 -103 -22 -1047 0 -1119 10
-33 15 -92 15 -180 -1 -120 -3 -133 -23 -157 -12 -15 -36 -33 -52 -42 -17 -8
-39 -24 -49 -36 -11 -12 -27 -21 -37 -21 -10 0 -20 -4 -23 -9 -8 -13 -84 -51
-101 -51 -8 0 -15 -4 -15 -8 0 -9 -70 -42 -91 -42 -8 0 -23 -7 -33 -15 -11 -8
-34 -15 -52 -15 -17 0 -37 -7 -44 -15 -7 -8 -22 -15 -34 -15 -12 0 -31 -7 -42
-15 -10 -8 -33 -15 -50 -15 -16 0 -39 -7 -50 -15 -10 -8 -32 -15 -49 -15 -16
0 -39 -7 -49 -15 -11 -8 -38 -15 -61 -15 -23 0 -50 -7 -61 -15 -10 -8 -35 -15
-55 -15 -20 0 -50 -7 -65 -15 -41 -21 -226 -21 -244 0 -7 8 -23 15 -35 15 -12
0 -28 7 -35 15 -7 8 -20 15 -29 15 -9 0 -32 10 -51 23 -19 12 -53 31 -75 42
-22 11 -56 32 -76 48 -20 15 -40 27 -44 27 -4 0 -20 11 -37 25 -16 14 -36 25
-44 25 -8 0 -31 15 -51 33 -21 18 -54 44 -73 57 -19 13 -53 39 -74 57 -22 18
-45 33 -51 33 -6 0 -24 14 -41 31 -16 17 -49 45 -74 62 -25 17 -77 62 -117
100 -39 38 -93 84 -119 103 -53 38 -251 228 -289 279 -14 18 -28 50 -30 71 -3
20 -10 43 -16 50 -5 7 -12 46 -14 87 -1 41 -8 84 -14 95 -6 11 -11 58 -11 104
0 58 -5 92 -16 113 -15 26 -17 89 -21 486 -4 446 -3 458 17 496 29 56 68 91
137 122 11 5 24 15 28 20 3 6 17 11 29 11 13 0 29 7 36 15 6 8 44 30 83 49 40
19 88 44 107 55 19 10 80 40 135 66 55 25 112 53 127 61 14 8 33 14 41 14 8 0
20 7 27 15 7 8 20 15 30 15 10 0 23 7 30 15 7 8 22 15 34 15 11 0 30 7 40 15
11 8 27 15 37 15 9 0 22 6 28 14 6 8 24 16 39 19 39 7 101 32 114 45 7 7 21
12 33 12 11 1 31 7 45 15 14 8 35 14 46 15 12 0 27 7 34 15 22 27 44 16 110
-51z m4998 -1381 c2 -24 -3 -57 -11 -75 -8 -18 -18 -40 -21 -48 -3 -8 -10 -22
-15 -30 -5 -8 -17 -35 -26 -60 -20 -52 -44 -109 -56 -130 -4 -8 -32 -62 -61
-120 -28 -58 -62 -119 -75 -136 -13 -17 -23 -35 -23 -41 0 -5 -34 -60 -75
-121 -41 -61 -75 -115 -75 -120 0 -5 -12 -19 -26 -33 -14 -13 -32 -37 -40 -52
-9 -15 -23 -36 -32 -45 -9 -9 -39 -46 -67 -82 -60 -79 -490 -510 -508 -510 -8
0 -24 -11 -37 -25 -14 -15 -49 -42 -80 -63 -30 -20 -68 -49 -85 -64 -16 -15
-35 -28 -41 -28 -6 0 -26 -13 -44 -30 -18 -17 -38 -30 -44 -30 -6 0 -29 -14
-50 -30 -22 -17 -44 -30 -49 -30 -6 0 -25 -11 -43 -25 -46 -35 -74 -33 -74 4
0 16 -7 45 -15 64 -10 24 -15 70 -15 136 l0 99 58 59 c146 150 321 341 360
392 82 108 111 146 147 191 20 25 47 61 60 80 13 19 49 72 79 117 31 45 60 84
65 87 5 4 12 19 16 35 3 16 14 36 24 45 10 10 44 67 75 129 31 62 61 119 66
127 5 8 19 41 31 73 13 32 39 76 57 98 29 34 40 40 68 37 18 -1 39 3 46 10 6
6 28 12 47 12 19 0 42 7 51 15 10 9 32 17 50 20 18 2 38 9 43 14 6 6 21 11 33
11 12 0 27 7 34 15 7 8 21 15 32 15 11 0 32 6 46 14 15 8 34 17 42 20 8 3 22
10 30 14 60 35 78 42 100 39 22 -2 25 -7 28 -44z m-3504 -1438 c11 -8 28 -15
38 -15 10 0 18 -4 18 -10 0 -5 11 -10 24 -10 13 0 29 -7 36 -15 7 -8 25 -15
39 -15 15 0 36 -7 47 -15 10 -8 31 -15 45 -15 15 0 32 -7 39 -15 7 -9 29 -15
55 -15 26 0 48 -6 55 -15 8 -10 30 -15 65 -15 34 0 57 -5 65 -15 8 -9 28 -13
60 -12 34 1 54 -3 67 -15 15 -14 38 -18 101 -18 45 0 82 -4 82 -9 0 -4 60 -10
134 -13 81 -3 140 -9 149 -16 9 -8 92 -12 261 -14 l248 -3 18 -47 c13 -34 19
-84 21 -175 l4 -127 -75 -38 c-41 -21 -83 -38 -93 -38 -10 0 -20 -7 -23 -15
-4 -8 -17 -15 -29 -15 -13 0 -36 -6 -52 -14 -56 -28 -104 -46 -121 -46 -10 0
-23 -5 -30 -12 -6 -6 -24 -11 -41 -10 -17 0 -36 -7 -47 -19 -12 -13 -30 -19
-60 -19 -24 0 -46 -4 -49 -10 -3 -5 -21 -10 -38 -10 -18 0 -49 -9 -70 -20 -25
-14 -54 -20 -83 -19 -24 2 -50 -3 -56 -9 -7 -7 -40 -12 -77 -12 -41 0 -70 -5
-80 -14 -11 -10 -55 -15 -146 -18 -71 -3 -139 -9 -150 -15 -40 -22 -740 0
-782 25 -12 6 -41 12 -65 12 -24 0 -53 7 -64 15 -11 8 -42 14 -75 15 -30 0
-60 5 -66 11 -5 5 -26 11 -44 11 -19 1 -49 9 -68 19 -20 11 -45 16 -61 13 -17
-4 -32 0 -43 10 -8 9 -21 16 -28 16 -19 0 -119 101 -119 120 -1 8 -14 31 -30
50 -17 19 -30 39 -30 44 0 5 -9 19 -19 30 -27 29 -61 93 -61 114 0 24 19 42
45 42 11 0 29 7 39 15 11 8 40 15 65 15 25 0 55 7 65 15 11 8 36 15 57 15 20
0 42 7 49 15 8 9 30 15 57 15 26 0 51 6 59 15 9 8 25 15 37 15 12 0 31 7 41
15 11 8 33 15 49 15 15 0 35 7 43 15 9 8 24 15 33 15 10 0 24 7 31 15 7 8 24
15 39 15 14 0 35 7 45 15 11 8 26 15 35 15 8 0 22 6 30 13 9 7 36 22 61 32 25
11 59 30 76 42 17 13 35 23 40 23 6 0 15 5 22 12 22 22 127 77 147 77 11 0 29
-6 39 -14z"/>
</g>
</svg>
