<svg id="Capa_1" enable-background="new 0 0 512 512" height="512" viewBox="0 0 512 512" width="512" xmlns="http://www.w3.org/2000/svg" fill="#fff"><g id="Discussion_1_"><g><path d="m210 512h-210v-75c0-24.814 20.186-45 45-45h120c24.814 0 45 20.186 45 45z"/></g><g><path d="m105 392c-33.091 0-60-26.909-60-60s26.909-60 60-60 60 26.909 60 60-26.909 60-60 60z"/></g><g><path d="m512 512h-210v-75c0-24.814 20.186-45 45-45h120c24.814 0 45 20.186 45 45z"/></g><g><path d="m407 392c-33.091 0-60-26.909-60-60s26.909-60 60-60 60 26.909 60 60-26.909 60-60 60z"/></g><path d="m376 0h-240c-24.814 0-45 20.186-45 45v120c0 19.556 12.539 36.24 30 42.437v32.563h15c23.452 0 45.601-11.309 59.692-30h120.615c14.092 18.691 36.24 30 59.692 30h15v-32.563c17.461-6.196 30-22.881 30-42.437v-120c.001-24.814-20.185-45-44.999-45zm-165 120h-30v-30h30zm60 0h-30v-30h30zm60 0h-30v-30h30z"/></g></svg>