<?xml version="1.0" standalone="no"?>
<!DOCTYPE svg PUBLIC "-//W3C//DTD SVG 20010904//EN"
 "http://www.w3.org/TR/2001/REC-SVG-20010904/DTD/svg10.dtd">
<svg version="1.0" xmlns="http://www.w3.org/2000/svg"
 width="512.000000pt" height="512.000000pt" viewBox="0 0 512.000000 512.000000"
 preserveAspectRatio="xMidYMid meet">

<g transform="translate(0.000000,512.000000) scale(0.100000,-0.100000)"
fill="#fff" stroke="none">
<path d="M0 4840 l0 -280 110 0 110 0 2 168 3 167 168 3 167 2 0 110 0 110
-280 0 -280 0 0 -280z"/>
<path d="M1360 5010 l0 -110 400 0 400 0 0 110 0 110 -400 0 -400 0 0 -110z"/>
<path d="M2960 5010 l0 -110 400 0 400 0 0 110 0 110 -400 0 -400 0 0 -110z"/>
<path d="M4560 5010 l0 -110 168 -2 167 -3 3 -167 2 -168 110 0 110 0 0 280 0
280 -280 0 -280 0 0 -110z"/>
<path d="M1219 4047 c-95 -40 -148 -90 -200 -187 -21 -39 -24 -58 -24 -150 0
-96 2 -110 28 -160 23 -43 135 -161 525 -552 l497 -498 -497 -497 c-272 -274
-503 -513 -513 -532 -52 -104 -61 -217 -25 -314 26 -70 105 -159 170 -192 101
-51 225 -53 329 -4 34 16 175 151 549 523 l502 501 503 -501 c373 -372 514
-507 548 -523 150 -70 316 -38 427 83 107 118 124 275 47 427 -10 19 -241 258
-513 532 l-497 497 497 498 c390 391 502 509 525 552 26 50 28 64 28 160 0 96
-2 110 -28 158 -38 72 -106 138 -175 170 -49 23 -70 27 -152 27 -162 0 -138
19 -712 -554 l-498 -495 -497 495 c-566 564 -549 550 -702 556 -73 3 -95 0
-142 -20z"/>
<path d="M0 3360 l0 -400 110 0 110 0 0 400 0 400 -110 0 -110 0 0 -400z"/>
<path d="M4900 3360 l0 -400 110 0 110 0 0 400 0 400 -110 0 -110 0 0 -400z"/>
<path d="M0 1760 l0 -400 110 0 110 0 0 400 0 400 -110 0 -110 0 0 -400z"/>
<path d="M4900 1760 l0 -400 110 0 110 0 0 400 0 400 -110 0 -110 0 0 -400z"/>
<path d="M0 280 l0 -280 280 0 280 0 0 110 0 110 -167 2 -168 3 -3 168 -2 167
-110 0 -110 0 0 -280z"/>
<path d="M4898 393 l-3 -168 -167 -3 -168 -2 0 -110 0 -110 280 0 280 0 0 280
0 280 -110 0 -110 0 -2 -167z"/>
<path d="M1360 110 l0 -110 400 0 400 0 0 110 0 110 -400 0 -400 0 0 -110z"/>
<path d="M2960 110 l0 -110 400 0 400 0 0 110 0 110 -400 0 -400 0 0 -110z"/>
</g>
</svg>
