<?xml version="1.0" standalone="no"?>
<!DOCTYPE svg PUBLIC "-//W3C//DTD SVG 20010904//EN"
 "http://www.w3.org/TR/2001/REC-SVG-20010904/DTD/svg10.dtd">
<svg version="1.0" xmlns="http://www.w3.org/2000/svg"
 width="1280.000000pt" height="1280.000000pt" viewBox="0 0 1280.000000 1280.000000"
 preserveAspectRatio="xMidYMid meet">
<metadata>
Created by potrace 1.16, written by Peter Selinger 2001-2019
</metadata>
<g transform="translate(0.000000,1280.000000) scale(0.100000,-0.100000)"
fill="#fff" stroke="none">
<path d="M4915 11199 c-76 -9 -163 -39 -231 -80 -35 -22 -757 -737 -2221
-2203 -2041 -2043 -2171 -2175 -2201 -2237 -44 -95 -62 -174 -62 -279 0 -105
18 -184 62 -279 30 -62 159 -194 2212 -2248 2165 -2165 2182 -2181 2256 -2216
41 -19 100 -41 130 -48 75 -17 212 -15 287 4 216 56 400 241 442 445 8 37 11
433 11 1297 l0 1245 1748 0 c1924 0 1791 -4 1929 62 93 45 216 168 261 261 66
136 62 51 62 1477 0 1426 4 1341 -62 1477 -45 93 -168 216 -261 261 -138 66
-5 62 -1929 62 l-1748 0 0 1248 c0 1373 3 1297 -62 1432 -42 88 -158 203 -253
252 -114 59 -239 82 -370 67z"/>
<path d="M8162 11169 c-69 -34 -104 -71 -138 -144 l-24 -50 0 -576 0 -576 31
-61 c32 -65 66 -99 133 -135 l41 -22 1150 -6 c1042 -5 1156 -7 1215 -22 319
-84 534 -302 606 -612 18 -77 19 -178 19 -2565 0 -2387 -1 -2488 -19 -2565
-72 -310 -287 -528 -606 -612 -59 -15 -173 -17 -1215 -22 l-1150 -6 -41 -22
c-67 -36 -101 -70 -133 -135 l-31 -61 0 -577 0 -577 31 -61 c34 -69 71 -104
144 -138 l50 -24 1182 0 c1266 0 1275 0 1513 51 144 31 370 109 510 176 743
354 1247 1049 1355 1866 13 104 15 432 15 2707 0 2795 2 2671 -51 2920 -35
162 -114 385 -194 545 -193 390 -470 703 -840 949 -211 141 -542 280 -795 335
-238 51 -247 51 -1514 51 l-1183 0 -61 -31z"/>
</g>
</svg>
